<svg version="1" xmlns="http://www.w3.org/2000/svg" width="324" height="324" viewBox="0 0 243.000000 243.000000"><path d="M112 33.2c-1.3.5-17 1.1-34.9 1.4l-32.5.6-7 3.3c-6.6 3.1-10.2 4.2-14.9 4.4-1 .1-4.2 2.5-7 5.5-7.1 7.4-7.3 7.7-8 12.1C6.6 67.2 3.2 82.4 2.2 85c-.5 1.4-.8 3.8-.7 5.5.2 1.6.6 7.9.9 14 .8 12.2.8 12.2 3.1 25 2.4 13.5 6 24.6 9.7 29.5 1.8 2.3 4 5.2 4.8 6.4 3.4 5 6.6 8.3 10.4 11 2.3 1.7 6.4 5 9.2 7.5 7.5 6.6 6.9 6.3 20.1 12.8l12 6 11.9.7c21.7 1.3 24 1.6 30.9 4.5 3.8 1.6 7.6 2.8 8.4 2.6.9-.2 3-.8 4.6-1.3 1.7-.5 7.7-1 13.5-1.1 9-.2 13.2-.5 18.5-1.5.6-.1 2.5-1 4.3-1.9 1.7-1 3.2-1.6 3.2-1.3 0 .2 1.9-.1 4.3-.6 2.3-.5 5.1-1.2 6.3-1.4 4-.8 14.7-4.4 16-5.4.6-.6 4-2.5 7.5-4.1 3.5-1.7 8-4.3 9.9-5.8 1.9-1.5 5.5-3.3 8-4 6.6-1.9 9.1-4.1 15.3-13.3l5.6-8.3-.1-12.5c0-7.8-.7-16.2-1.9-22.4-2.8-14.6-11.3-32.2-17.5-36.3-1.4-.9-3.7-3.7-5.1-6.2C212 77.4 201.8 64 200.8 64c-.4 0-2.2-1.3-4-2.8-1.8-1.6-7.8-5.3-13.3-8.3-5.4-3-11.3-6.2-13-7.1-10-5.7-21.8-8.8-38.5-10.3-7.6-.7-12.8-1.5-15.4-2.4-1.1-.5-3.2-.4-4.6.1z"/></svg>